<svg width="64" height="64" viewBox="0 0 64 64" fill="none" xmlns="http://www.w3.org/2000/svg">
<g clip-path="url(#clip0_61_5)">
<path d="M15.6406 0.835935C16.9615 1.69198 18.0451 2.90183 19.1527 4.01094C19.317 4.175 19.4813 4.33904 19.6456 4.50306C20.0944 4.95104 20.5427 5.3994 20.991 5.84783C21.4756 6.33247 21.9606 6.81675 22.4455 7.30108C23.3943 8.24882 24.3427 9.1969 25.291 10.1451C26.0619 10.9159 26.8329 11.6867 27.6039 12.4573C29.4358 14.2883 31.2677 16.1194 33.0991 17.9509C33.1576 18.0094 33.2161 18.0679 33.2764 18.1281C33.5728 18.4245 33.8692 18.721 34.1656 19.0174C34.2538 19.1057 34.2538 19.1057 34.3439 19.1957C34.4629 19.3148 34.582 19.4338 34.701 19.5528C36.5536 21.4055 38.4067 23.2577 40.2602 25.1095C42.3449 27.1922 44.4291 29.2753 46.5127 31.3591C47.6152 32.4616 48.7178 33.5639 49.8209 34.6657C50.7598 35.6034 51.6983 36.5416 52.6362 37.4803C53.1144 37.959 53.5929 38.4375 54.072 38.9155C54.5109 39.3534 54.9492 39.7919 55.3871 40.2309C55.5452 40.3892 55.7035 40.5473 55.862 40.7051C57.8604 42.6953 59.9878 45.2588 60.2969 48.1953C60.25 48.625 60.25 48.625 59.9795 48.9043C59.6937 49.2474 59.6937 49.2474 59.8379 49.7124C59.8992 49.8798 59.9637 50.046 60.0313 50.2109C60.375 51.1169 60.375 51.1169 60.375 51.375C60.5117 51.3853 60.6483 51.3956 60.7891 51.4062C61.25 51.5 61.25 51.5 61.45 51.7134C61.6427 52.029 61.7646 52.3296 61.8856 52.6791C61.9331 52.8152 61.9806 52.9514 62.0296 53.0917C62.0796 53.2387 62.1296 53.3857 62.1812 53.5371C62.2333 53.6898 62.2855 53.8425 62.3393 53.9998C62.4496 54.3236 62.559 54.6477 62.668 54.972C62.7788 55.3011 62.8915 55.6296 63.0059 55.9575C64.4282 60.0362 64.4282 60.0362 63.8047 61.75C63.1929 62.871 62.3361 63.5963 61.125 64C59.2758 64.2442 57.6788 63.5921 55.9609 62.9844C55.6625 62.8813 55.364 62.7786 55.0654 62.6761C54.6109 62.5202 54.1565 62.364 53.7024 62.2066C52.7395 61.873 51.7738 61.5496 50.8037 61.2373C50.6818 61.198 50.5599 61.1588 50.4343 61.1183C49.9741 60.9704 49.5138 60.823 49.0532 60.6762C45.2723 59.4695 42.6708 57.8177 39.8636 55.0044C39.7146 54.8556 39.5657 54.7069 39.4167 54.5581C39.0104 54.1524 38.6046 53.7463 38.1988 53.3401C37.7599 52.901 37.3207 52.4622 36.8816 52.0234C36.0229 51.1652 35.1645 50.3067 34.3062 49.4481C33.609 48.7506 32.9117 48.0532 32.2143 47.356C32.1149 47.2566 32.0155 47.1573 31.9132 47.0549C31.7113 46.8531 31.5094 46.6513 31.3076 46.4495C29.4172 44.5594 27.5271 42.669 25.6372 40.7784C24.0145 39.1551 22.3915 37.5322 20.7682 35.9095C18.8827 34.0247 16.9975 32.1397 15.1125 30.2543C14.9117 30.0535 14.711 29.8527 14.5102 29.6519C14.3621 29.5037 14.3621 29.5037 14.2109 29.3526C13.5137 28.6552 12.8163 27.9581 12.1189 27.2609C11.2702 26.4126 10.4217 25.564 9.57347 24.7151C9.14044 24.2817 8.70732 23.8485 8.27393 23.4155C7.87779 23.0197 7.48194 22.6237 7.08632 22.2274C6.94262 22.0836 6.79882 21.9398 6.6549 21.7962C6.46037 21.6021 6.26622 21.4075 6.07217 21.2129C5.90979 21.0505 5.90979 21.0505 5.74413 20.8848C5.50001 20.625 5.50001 20.625 5.37501 20.375C5.38693 20.2927 5.39886 20.2103 5.41114 20.1255C5.49177 19.5395 5.44602 19.2281 5.1045 18.7324C4.5133 18.0476 4.5133 18.0476 3.71241 17.709C3.47305 17.7555 3.23632 17.8149 3.00001 17.875C1.86714 17.3688 0.99486 16.1043 0.500011 15C0.451027 14.8957 0.402042 14.7915 0.351573 14.6841C-0.305853 13.0565 -0.168255 11.2136 0.390636 9.58154C0.994154 8.27671 2.06887 7.24826 3.07325 6.24756C3.2118 6.10843 3.35031 5.96927 3.48877 5.83005C3.77705 5.54066 4.06602 5.25198 4.35548 4.96377C4.7237 4.59699 5.08989 4.22826 5.45557 3.85894C5.74038 3.57182 6.02637 3.28589 6.31269 3.00027C6.44812 2.86487 6.58316 2.72909 6.71779 2.59289C7.6732 1.62794 8.63617 0.820749 9.92189 0.335935C10.0208 0.297746 10.1198 0.259558 10.2217 0.220212C12.0111 -0.39196 14.0225 -0.0605464 15.6406 0.835935Z" fill="black"/>
<path d="M28.375 16.25C28.7714 16.4254 29.0387 16.6324 29.3445 16.9381C29.4365 17.0294 29.5285 17.1208 29.6233 17.2149C29.7736 17.366 29.7736 17.366 29.9269 17.5202C30.034 17.6269 30.1412 17.7336 30.2515 17.8436C30.5487 18.1399 30.8453 18.4369 31.1417 18.734C31.4615 19.0544 31.782 19.374 32.1023 19.6937C32.7298 20.32 33.3566 20.947 33.9831 21.5743C34.4921 22.0838 35.0013 22.5931 35.5107 23.1022C35.5831 23.1746 35.6556 23.247 35.7302 23.3216C35.8774 23.4687 36.0245 23.6158 36.1716 23.7628C37.5518 25.1423 38.9313 26.5226 40.3104 27.9031C41.4949 29.0887 42.68 30.2736 43.8657 31.4581C45.2415 32.8326 46.617 34.2076 47.9918 35.5832C48.1383 35.7297 48.2848 35.8762 48.4312 36.0228C48.5393 36.1309 48.5393 36.1309 48.6496 36.2413C49.1585 36.7504 49.6677 37.2592 50.177 37.768C50.7972 38.3874 51.4168 39.0073 52.0359 39.6277C52.3521 39.9445 52.6684 40.2611 52.9853 40.5771C53.3281 40.919 53.6699 41.2619 54.0116 41.6048C54.1635 41.7559 54.1635 41.7559 54.3186 41.9101C54.4546 42.0471 54.4546 42.0471 54.5934 42.1869C54.6725 42.2661 54.7516 42.3452 54.8331 42.4267C55 42.625 55 42.625 55 42.875C54.8068 42.9974 54.6077 43.1105 54.4062 43.2188C53.7021 43.6261 53.3851 43.9698 53.125 44.75C53.1095 44.9383 53.0999 45.1271 53.0942 45.3159C53.0901 45.4252 53.086 45.5346 53.0818 45.6472C53.0742 45.8767 53.067 46.1062 53.0603 46.3357C53.056 46.4452 53.0518 46.5547 53.0474 46.6675C53.0442 46.7672 53.0411 46.8669 53.0379 46.9697C52.996 47.2795 52.9147 47.4851 52.75 47.75C52.4541 47.898 52.2708 47.8906 51.9409 47.8926C51.8284 47.895 51.7158 47.8974 51.5999 47.8999C51.3649 47.9041 51.1298 47.9064 50.8948 47.9067C50.0525 47.9294 49.4279 48.1117 48.75 48.625C48.2358 49.1847 47.9881 49.7104 47.978 50.4683C47.975 50.5832 47.9721 50.6982 47.969 50.8167C47.9636 51.0582 47.9597 51.2997 47.9573 51.5413C47.9426 52.028 47.9309 52.3952 47.6997 52.8286C47.0949 53.1478 46.4164 53.0639 45.7466 53.061C44.9771 53.0731 44.3857 53.1695 43.75 53.625C43.4917 53.8938 43.4917 53.8938 43.3281 54.1953C43.2704 54.2909 43.2128 54.3864 43.1533 54.4849C43.1027 54.5724 43.0521 54.6599 43 54.75C42.9175 54.8738 42.835 54.9975 42.75 55.125C34.005 46.38 25.26 37.635 16.25 28.625C16.4744 28.1762 16.6357 27.9583 16.9809 27.6141C17.0811 27.5134 17.1814 27.4128 17.2847 27.3092C17.3948 27.1999 17.505 27.0907 17.6185 26.9781C17.7343 26.8623 17.8502 26.7464 17.9696 26.6269C18.2869 26.3095 18.605 25.9929 18.9233 25.6764C19.2559 25.3454 19.5878 25.0136 19.9197 24.6819C20.5483 24.0541 21.1775 23.427 21.8069 22.8001C22.5236 22.0862 23.2395 21.3717 23.9553 20.6571C25.4278 19.1873 26.9011 17.7183 28.375 16.25Z" fill="#F4DE69"/>
<path d="M28.375 16.25C28.4988 16.3119 28.4988 16.3119 28.625 16.375C25.6962 19.3038 22.7675 22.2325 19.75 25.25C20.7485 26.5813 21.7958 27.8593 22.875 29.125C22.9175 29.0254 22.9601 28.9258 23.0039 28.8232C23.4091 27.9375 23.7687 27.3561 24.625 26.875C24.723 26.8183 24.8209 26.7616 24.9219 26.7031C25.9838 26.4503 26.9707 26.6359 27.9146 27.1611C28.7485 27.6889 29.4195 28.329 30 29.125C30.1358 28.9761 30.1358 28.9761 30.2744 28.8242C30.3964 28.6952 30.5185 28.5663 30.6406 28.4375C30.6999 28.3719 30.7592 28.3063 30.8203 28.2388C31.1368 27.9095 31.3192 27.7577 31.7773 27.6948C32.125 27.75 32.125 27.75 32.4219 27.9453C32.7152 28.3853 32.7205 28.6039 32.625 29.125C32.3731 29.5015 32.0754 29.8112 31.75 30.125C31.6443 30.2281 31.5386 30.3312 31.4297 30.4375C31.0528 30.6694 30.8098 30.6393 30.375 30.625C30.3823 30.7217 30.3895 30.8184 30.397 30.918C30.4367 31.8354 30.3679 32.4278 29.75 33.125C29.0046 33.888 28.2742 34.0402 27.25 34.125C27.3409 34.2235 27.4318 34.3219 27.5254 34.4233C27.5854 34.4883 27.6454 34.5533 27.7072 34.6203C27.8415 34.7658 27.9758 34.9113 28.1102 35.0567C28.4569 35.4321 28.8032 35.8078 29.1484 36.1846C29.7565 36.8473 30.368 37.5008 31.0101 38.131C31.2358 38.3606 31.446 38.5968 31.6551 38.8415C32.1176 39.3734 32.606 39.8741 33.105 40.3716C33.1957 40.4624 33.2864 40.5533 33.3799 40.6469C33.5704 40.8375 33.7611 41.0279 33.9519 41.2182C34.2414 41.507 34.5303 41.7966 34.8191 42.0862C35.0055 42.2725 35.1919 42.4588 35.3784 42.645C35.506 42.773 35.506 42.773 35.6362 42.9035C36.1277 43.3928 36.6322 43.8595 37.1586 44.3111C37.448 44.5638 37.7166 44.834 37.9844 45.1094C38.3317 45.4785 38.3317 45.4785 38.75 45.75C38.7456 45.6714 38.7413 45.5927 38.7368 45.5117C38.7094 44.6436 38.7416 43.9127 39.355 43.2524C40.0296 42.6432 40.478 42.3392 41.4062 42.3594C41.541 42.3616 41.6757 42.3639 41.8145 42.3662C41.9169 42.3691 42.0194 42.372 42.125 42.375C42.1127 42.2053 42.1127 42.2053 42.1001 42.0322C42.1403 41.3753 42.5491 41.0693 43 40.625C43.1031 40.5219 43.2062 40.4188 43.3125 40.3125C43.739 40.0566 44.0114 40.0539 44.5 40.125C44.8047 40.3281 44.8047 40.3281 45 40.625C45.0653 41.1116 45.0492 41.3083 44.7539 41.7085C44.6495 41.8124 44.5451 41.9164 44.4375 42.0234C43.9777 42.4339 43.9777 42.4339 43.875 43C44.0666 43.1997 44.0666 43.1997 44.3203 43.3906C45.3235 44.2373 45.9962 45.1394 46.1685 46.4575C46.2174 47.3507 46.0023 48.0126 45.5 48.75C44.9112 49.3949 44.1875 49.6162 43.375 49.875C44.3317 50.7678 45.3381 51.5784 46.375 52.375C46.5089 52.4799 46.5089 52.4799 46.6455 52.5869C46.8797 52.7533 47.1172 52.8744 47.375 53C47.3007 53.0012 47.2264 53.0023 47.1499 53.0035C46.8082 53.0103 46.4666 53.0208 46.125 53.0312C46.0082 53.033 45.8914 53.0348 45.771 53.0366C45.0006 53.0636 44.3866 53.1699 43.75 53.625C43.4917 53.8938 43.4917 53.8938 43.3281 54.1953C43.2704 54.2909 43.2128 54.3864 43.1533 54.4849C43.1027 54.5724 43.0521 54.6599 43 54.75C42.9175 54.8738 42.835 54.9975 42.75 55.125C34.005 46.38 25.26 37.635 16.25 28.625C16.4744 28.1762 16.6357 27.9583 16.9809 27.6141C17.0811 27.5134 17.1814 27.4128 17.2847 27.3092C17.3948 27.1999 17.505 27.0907 17.6185 26.9781C17.7343 26.8623 17.8502 26.7464 17.9696 26.6269C18.2869 26.3095 18.605 25.9929 18.9233 25.6764C19.2559 25.3454 19.5878 25.0136 19.9197 24.6819C20.5483 24.0541 21.1775 23.427 21.8069 22.8001C22.5236 22.0862 23.2395 21.3717 23.9553 20.6571C25.4278 19.1873 26.9011 17.7183 28.375 16.25Z" fill="#E8CE5D"/>
<path d="M14.8487 2.67456C15.9854 3.49915 16.9758 4.56659 17.9715 5.55276C18.1329 5.71208 18.295 5.87072 18.4577 6.02872C18.6952 6.25936 18.9305 6.49195 19.1655 6.7251C19.2388 6.79555 19.3121 6.86599 19.3876 6.93858C19.5877 7.1398 19.5877 7.1398 19.875 7.5C19.8456 7.96695 19.6007 8.19565 19.2794 8.51569C19.1783 8.61735 19.0771 8.71901 18.9729 8.82375C18.8612 8.93416 18.7494 9.04457 18.6342 9.15832C18.5159 9.27654 18.3977 9.39484 18.2795 9.51322C17.9586 9.83427 17.6365 10.1542 17.3142 10.4738C16.9775 10.8082 16.6419 11.1435 16.3062 11.4788C15.6704 12.1135 15.0336 12.7472 14.3964 13.3806C13.6711 14.1017 12.9468 14.824 12.2226 15.5463C10.7329 17.032 9.2419 18.5165 7.75 20C7.60672 19.8777 7.4635 19.7553 7.32031 19.6328C7.24055 19.5647 7.16079 19.4965 7.07861 19.4263C6.96626 19.329 6.85508 19.2301 6.75 19.125C6.24206 19.1019 6.24206 19.1019 5.75037 19.2099C5.5 19.25 5.5 19.25 5.29407 19.115C5.22861 19.0463 5.16315 18.9776 5.0957 18.9067C5.024 18.833 4.95229 18.7593 4.87842 18.6833C4.8051 18.6048 4.73179 18.5262 4.65625 18.4453C4.581 18.3672 4.50575 18.2892 4.42822 18.2087C4.24238 18.0155 4.0585 17.8204 3.875 17.625C3.93688 17.4394 3.93688 17.4394 4 17.25C4.08354 16.8338 4.08354 16.8338 4 16.375C3.80836 16.1346 3.59529 15.9404 3.36768 15.7339C2.3784 14.7804 1.85318 13.5371 1.8125 12.1797C1.87071 10.2491 3.12824 8.93772 4.43945 7.63574C4.56716 7.50778 4.69481 7.37977 4.82241 7.2517C5.08866 6.98489 5.35558 6.71877 5.62299 6.45312C5.96268 6.11556 6.30067 5.77634 6.63818 5.43659C6.90111 5.17229 7.16494 4.90891 7.42904 4.64578C7.55388 4.52118 7.67846 4.39632 7.80274 4.27115C9.83158 2.23104 12.1298 0.868929 14.8487 2.67456Z" fill="#E98C99"/>
<path d="M21.3886 9.14783C21.7256 9.29348 21.9285 9.50872 22.1866 9.76907C22.2967 9.87918 22.4068 9.98928 22.5202 10.1027C22.6391 10.2236 22.7581 10.3444 22.877 10.4653C22.9995 10.5885 23.1221 10.7117 23.2447 10.8347C23.567 11.1584 23.8881 11.4832 24.2089 11.8082C24.5367 12.1398 24.8656 12.4704 25.1943 12.801C25.8389 13.4496 26.4823 14.0994 27.125 14.75C26.9434 15.1671 26.7153 15.4407 26.3941 15.7609C26.2939 15.8616 26.1936 15.9622 26.0903 16.0658C25.9802 16.1751 25.87 16.2843 25.7565 16.3969C25.6407 16.5127 25.5248 16.6286 25.4054 16.7481C25.0881 17.0655 24.77 17.3821 24.4517 17.6986C24.1191 18.0296 23.7872 18.3614 23.4553 18.6931C22.8267 19.3209 22.1975 19.948 21.5681 20.5749C20.8514 21.2888 20.1355 22.0033 19.4197 22.7179C17.9472 24.1877 16.4739 25.6567 15 27.125C14.5638 26.9191 14.2801 26.6854 13.9384 26.3417C13.8283 26.2316 13.7182 26.1215 13.6048 26.0081C13.4859 25.8879 13.3669 25.7677 13.248 25.6475C13.1255 25.5245 13.0029 25.4015 12.8803 25.2786C12.5583 24.9557 12.2371 24.6321 11.9161 24.3082C11.5881 23.9777 11.2593 23.6478 10.9307 23.3179C10.2864 22.6709 9.64296 22.0232 9 21.375C9.59075 20.6661 10.2208 20.0085 10.8714 19.3545C10.9817 19.2432 11.0919 19.1319 11.2055 19.0173C11.5679 18.6518 11.9309 18.2867 12.2939 17.9219C12.4194 17.7958 12.5448 17.6697 12.6703 17.5435C13.1916 17.0195 13.7131 16.4957 14.235 15.9723C14.9817 15.2236 15.7273 14.4739 16.4714 13.7227C16.9959 13.1933 17.5216 12.6652 18.0482 12.1379C18.3624 11.8232 18.6761 11.5081 18.9885 11.1916C19.3359 10.8397 19.6858 10.4903 20.0359 10.1411C20.1393 10.0357 20.2427 9.93024 20.3492 9.8216C20.4446 9.72733 20.5399 9.63305 20.6381 9.53592C20.7205 9.45306 20.803 9.3702 20.8879 9.28482C21.125 9.125 21.125 9.125 21.3886 9.14783Z" fill="#599C77"/>
<path d="M56.3962 44.5359C56.75 44.625 56.75 44.625 56.9638 44.8545C57.4999 45.8086 57.845 46.7916 58.1628 47.8367C58.3737 48.5476 58.3737 48.5476 58.8986 49.0157C59.0964 49.0676 59.2953 49.1156 59.4951 49.1593C59.75 49.25 59.75 49.25 60.001 49.6792C60.0522 49.8446 60.0987 50.0116 60.1406 50.1797C60.1793 50.305 60.1793 50.305 60.2188 50.4329C60.3424 50.8602 60.4439 51.2119 60.25 51.625C60.1524 51.7166 60.1524 51.7166 60.0527 51.8101C59.8481 51.988 59.8481 51.988 59.8613 52.2564C59.8762 52.3496 59.891 52.4429 59.9063 52.5391C59.9198 52.6314 59.9333 52.7237 59.9473 52.8189C59.9734 52.9704 59.9734 52.9704 60 53.125C60.0226 53.2608 60.0451 53.3967 60.0684 53.5366C60.0871 53.6483 60.1057 53.76 60.125 53.875C59.9573 53.9908 59.9573 53.9908 59.7861 54.1089C58.944 54.6964 58.1472 55.2963 57.3955 55.999C57.1636 56.2142 56.9266 56.4121 56.6797 56.6094C55.548 57.5771 54.7232 58.912 53.875 60.125C53.0492 59.955 52.2613 59.7305 51.4624 59.4624C51.3427 59.4226 51.223 59.3828 51.0997 59.3419C50.8478 59.258 50.596 59.1738 50.3443 59.0894C49.9636 58.9618 49.5825 58.8355 49.2014 58.7092C47.99 58.3059 46.7904 57.8994 45.625 57.375C45.4664 57.3057 45.4664 57.3057 45.3047 57.2349C45.012 57.1005 44.8314 56.998 44.625 56.75C44.4821 56.1506 44.4756 55.62 44.8013 55.0859C45.382 54.7076 46.0682 54.8159 46.7424 54.825C47.5939 54.8146 48.1812 54.6256 48.875 54.125C49.721 53.2573 49.6676 52.3399 49.6738 51.1965C49.6953 50.3525 49.6953 50.3525 49.9248 49.9224C50.5295 49.6018 51.2081 49.6861 51.8784 49.689C52.8022 49.6745 53.4978 49.5022 54.1641 48.8359C54.7628 47.8823 54.8041 47.117 54.8049 46.0149C54.8226 45.2039 54.8226 45.2039 55.0874 44.8052C55.5314 44.527 55.8803 44.506 56.3962 44.5359Z" fill="#DBAE88"/>
<path d="M9 3.125C9.0825 3.16625 9.165 3.2075 9.25 3.25C8.30125 4.19875 7.3525 5.1475 6.375 6.125C7.16457 8.09893 8.45511 9.86328 9.625 11.625C9.76612 11.8384 9.90724 12.0518 10.0483 12.2651C10.6388 13.1558 11.2316 14.0426 11.8613 14.9062C12 15.125 12 15.125 12 15.375C12.0825 15.4163 12.165 15.4575 12.25 15.5C10.765 16.985 9.28 18.47 7.75 20C6.875 19.25 6.875 19.25 6.75 19.125C6.24206 19.1019 6.24206 19.1019 5.75037 19.2099C5.5 19.25 5.5 19.25 5.29407 19.115C5.22861 19.0463 5.16315 18.9776 5.0957 18.9067C5.024 18.833 4.95229 18.7593 4.87842 18.6833C4.8051 18.6048 4.73179 18.5262 4.65625 18.4453C4.581 18.3672 4.50575 18.2892 4.42822 18.2087C4.24238 18.0155 4.0585 17.8204 3.875 17.625C3.93688 17.4394 3.93688 17.4394 4 17.25C4.08354 16.8338 4.08354 16.8338 4 16.375C3.80836 16.1346 3.59529 15.9404 3.36768 15.7339C2.3784 14.7804 1.85318 13.5371 1.8125 12.1797C1.83684 11.3723 1.9687 10.814 2.375 10.125C2.44692 10.0025 2.44692 10.0025 2.5203 9.8776C3.06393 9.0119 3.75934 8.31756 4.4834 7.60498C4.61413 7.47495 4.74477 7.34484 4.87534 7.21465C5.21604 6.87536 5.55785 6.53722 5.89993 6.19933C6.25005 5.85306 6.5991 5.50571 6.94824 5.15845C7.63112 4.47957 8.31517 3.8019 9 3.125Z" fill="#D9808C"/>
<path d="M44.5 40.125C44.8047 40.3281 44.8047 40.3281 45 40.625C45.0653 41.1116 45.0492 41.3083 44.7539 41.7085C44.5973 41.8644 44.5973 41.8644 44.4375 42.0234C43.9777 42.434 43.9777 42.434 43.875 43C44.0666 43.1997 44.0666 43.1997 44.3203 43.3906C45.3235 44.2373 45.9962 45.1394 46.1685 46.4575C46.2172 47.347 46.0062 48.0178 45.5 48.75C45.0085 49.2855 44.5035 49.6 43.7803 49.6714C42.6786 49.7028 41.7944 49.6741 40.875 49C40.7133 48.8816 40.7133 48.8816 40.5483 48.7607C39.6249 48.0083 39.1239 47.1217 38.75 46C38.6839 45.1419 38.6394 44.2452 39.125 43.5C39.6506 42.9365 40.2076 42.402 41.002 42.3506C41.1354 42.3535 41.2688 42.3564 41.4063 42.3594C41.541 42.3616 41.6757 42.3639 41.8145 42.3662C41.9682 42.3706 41.9682 42.3706 42.125 42.375C42.1168 42.2619 42.1086 42.1488 42.1001 42.0322C42.1403 41.3753 42.5491 41.0693 43 40.625C43.1031 40.5219 43.2063 40.4188 43.3125 40.3125C43.739 40.0566 44.0114 40.0539 44.5 40.125Z" fill="#EA8D99"/>
<path d="M27.625 27C28.5876 27.5357 29.3527 28.2374 30 29.125C30.0906 29.0257 30.1811 28.9265 30.2744 28.8242C30.3964 28.6952 30.5185 28.5663 30.6406 28.4375C30.6999 28.3719 30.7592 28.3063 30.8203 28.2388C31.1367 27.9095 31.3192 27.7577 31.7773 27.6948C32.125 27.75 32.125 27.75 32.4219 27.9453C32.7152 28.3853 32.7205 28.6039 32.625 29.125C32.3731 29.5015 32.0754 29.8112 31.75 30.125C31.6443 30.2281 31.5386 30.3313 31.4297 30.4375C31.0528 30.6694 30.8098 30.6393 30.375 30.625C30.3822 30.7217 30.3895 30.8184 30.397 30.918C30.4367 31.8354 30.3679 32.4278 29.75 33.125C29.2529 33.6338 28.7412 33.9606 28.0254 34.0376C26.5612 34.0434 25.4638 33.6582 24.3818 32.6479C23.4305 31.6286 23.0254 30.6614 23.0425 29.2746C23.0847 28.4855 23.2859 27.9257 23.875 27.375C25.0324 26.477 26.2976 26.3795 27.625 27Z" fill="#EA8D99"/>
<path d="M24.75 12.75C25.1961 12.8049 25.3991 12.9795 25.709 13.2974C25.792 13.3816 25.875 13.4657 25.9604 13.5525C26.0457 13.6409 26.1309 13.7293 26.2188 13.8203C26.3059 13.9092 26.3931 13.998 26.4829 14.0896C26.6978 14.3089 26.9118 14.5291 27.125 14.75C26.9651 15.1005 26.7995 15.3566 26.527 15.6281C26.4562 15.6992 26.3854 15.7704 26.3124 15.8437C26.235 15.9202 26.1576 15.9967 26.0778 16.0756C25.9961 16.1573 25.9144 16.2391 25.8302 16.3233C25.5602 16.5931 25.2894 16.862 25.0186 17.1309C24.8311 17.3179 24.6437 17.5049 24.4563 17.692C23.9633 18.1841 23.4695 18.6755 22.9755 19.1667C22.4715 19.6681 21.9682 20.1703 21.4648 20.6724C20.4773 21.6573 19.4889 22.6414 18.5 23.625C17.975 23.3914 17.7026 23.039 17.3672 22.5859C17.313 22.5148 17.2587 22.4437 17.2029 22.3704C16.8995 21.9682 16.6331 21.5582 16.375 21.125C17.4565 20.029 18.5397 18.9348 19.625 17.8426C20.1289 17.3355 20.6321 16.8278 21.1341 16.3188C21.6182 15.8279 22.1038 15.3385 22.5905 14.8502C22.7763 14.6633 22.9615 14.4758 23.1461 14.2878C23.4041 14.0253 23.664 13.7647 23.9244 13.5046C24.001 13.4258 24.0775 13.3471 24.1563 13.2659C24.3719 13.0529 24.3719 13.0529 24.75 12.75Z" fill="#60AD84"/>
<path d="M21.25 9.25C21.886 9.33438 22.2301 9.79087 22.6641 10.2266C22.7463 10.3053 22.8286 10.384 22.9133 10.4651C22.9904 10.5419 23.0675 10.6186 23.147 10.6978C23.2178 10.7677 23.2885 10.8376 23.3615 10.9096C23.5 11.125 23.5 11.125 23.4661 11.3657C23.3112 11.8067 22.9535 12.095 22.6264 12.4161C22.5484 12.4942 22.4703 12.5723 22.3899 12.6528C22.1318 12.9107 21.8723 13.1673 21.6128 13.4238C21.4335 13.6024 21.2543 13.781 21.0752 13.9598C20.6036 14.43 20.1309 14.899 19.6579 15.3678C19.1755 15.8464 18.6941 16.3261 18.2126 16.8057C17.2678 17.7465 16.3218 18.6861 15.375 19.625C14.8574 19.4525 14.6721 19.0879 14.375 18.6562C14.3202 18.5786 14.2654 18.5009 14.209 18.4209C13.9129 17.9982 13.6397 17.5683 13.375 17.125C14.3913 16.0942 15.4093 15.0652 16.4294 14.0382C16.903 13.5613 17.376 13.0839 17.8477 12.6051C18.3027 12.1434 18.7591 11.6832 19.2166 11.2241C19.3912 11.0483 19.5652 10.872 19.7387 10.6952C19.9812 10.4482 20.2255 10.2033 20.4703 9.95871C20.5422 9.88462 20.614 9.81054 20.688 9.73421C20.8909 9.53393 20.8909 9.53393 21.25 9.25Z" fill="#60AD84"/>
<path d="M48.8091 54.3765C49.2417 54.5456 49.5714 54.8134 49.9297 55.1016C50.9588 55.9032 52.0381 56.6238 53.125 57.3438C53.2112 57.4009 53.2974 57.458 53.3862 57.5169C53.882 57.8454 54.3782 58.173 54.875 58.5C54.6862 58.8861 54.4754 59.2375 54.2344 59.5938C54.167 59.6937 54.0997 59.7936 54.0303 59.8965C53.979 59.9719 53.9278 60.0473 53.875 60.125C53.0492 59.955 52.2613 59.7305 51.4624 59.4624C51.3427 59.4226 51.223 59.3828 51.0997 59.3419C50.8478 59.258 50.596 59.1738 50.3443 59.0894C49.9636 58.9618 49.5825 58.8355 49.2014 58.7092C47.99 58.3059 46.7904 57.8994 45.625 57.375C45.5193 57.3288 45.4136 57.2826 45.3047 57.2349C45.012 57.1005 44.8314 56.998 44.625 56.75C44.4823 56.1514 44.4758 55.6209 44.7998 55.0869C45.3104 54.7542 45.8251 54.8051 46.4219 54.8047C47.2798 54.8005 48.0374 54.3728 48.8091 54.3765Z" fill="#C49C79"/>
<path d="M60.5 55.75C60.6238 55.7913 60.7475 55.8325 60.875 55.875C61.0323 56.231 61.0323 56.231 61.1851 56.7041C61.2259 56.8297 61.2259 56.8297 61.2675 56.9579C61.3249 57.1357 61.3815 57.3137 61.4373 57.4919C61.5225 57.7626 61.6105 58.0322 61.699 58.3018C61.7544 58.4749 61.8097 58.6481 61.8647 58.8213C61.9147 58.9783 61.9647 59.1352 62.0162 59.2969C62.1494 59.8517 62.2201 60.3679 62.019 60.9116C61.6277 61.5219 61.3007 61.8454 60.625 62.125C59.9905 62.1663 59.488 62.0762 58.8848 61.8833C58.8064 61.8586 58.7281 61.834 58.6474 61.8085C58.4 61.7303 58.1531 61.6503 57.9062 61.5703C57.7388 61.5171 57.5713 61.4639 57.4038 61.4109C56.8514 61.2356 56.2998 61.0583 55.75 60.875C56.0696 58.9705 58.7695 56.9407 60.2373 55.8818C60.324 55.8383 60.4107 55.7948 60.5 55.75Z" fill="#484F58"/>
<path d="M35.3281 33.375C35.7481 33.4994 35.8728 33.5368 36.125 33.875C36.19 34.209 36.19 34.209 36.2266 34.5938C36.3346 35.3373 36.5391 35.7757 37.125 36.25C37.6079 36.5317 38.1649 36.5818 38.7119 36.6675C39.0393 36.7613 39.1713 36.8547 39.375 37.125C39.4294 37.5508 39.4242 37.7883 39.211 38.1641C38.8784 38.4966 38.522 38.5302 38.0703 38.5547C37.0861 38.546 36.2345 38.057 35.5 37.4297C35.4175 37.3291 35.335 37.2286 35.25 37.125C35.1649 37.0348 35.0799 36.9445 34.9922 36.8516C34.4519 36.0672 34.149 35.2358 34.1943 34.2764C34.25 34 34.25 34 34.5078 33.6016C34.875 33.375 34.875 33.375 35.3281 33.375Z" fill="#050502"/>
<path d="M44.5 40.125C44.8047 40.3281 44.8047 40.3281 45 40.625C45.0611 41.1004 45.0455 41.3086 44.7715 41.7085C44.6716 41.8124 44.5717 41.9164 44.4687 42.0234C44.3208 42.1808 44.3208 42.1808 44.1699 42.3413C43.4832 43.0019 43.4832 43.0019 42.9297 42.9922C42.5 42.875 42.5 42.875 42.2578 42.6641C42.0719 42.2594 42.0397 42.0686 42.125 41.625C42.3808 41.2538 42.6795 40.9408 43 40.625C43.1031 40.5219 43.2062 40.4188 43.3125 40.3125C43.739 40.0566 44.0114 40.0539 44.5 40.125Z" fill="#0A0804"/>
<path d="M31.7812 27.6948C32.125 27.75 32.125 27.75 32.4219 27.9453C32.7152 28.3853 32.7205 28.6039 32.625 29.125C32.373 29.5016 32.075 29.8109 31.75 30.125C31.6469 30.2281 31.5437 30.3312 31.4375 30.4375C31.0157 30.6906 30.7331 30.6876 30.25 30.625C30.0078 30.5 30.0078 30.5 29.875 30.25C29.7808 29.4121 29.7808 29.4121 30.0041 29.0278C30.1842 28.8154 30.3738 28.6268 30.5781 28.4375C30.6434 28.3705 30.7086 28.3034 30.7759 28.2344C31.1071 27.9137 31.3202 27.7574 31.7812 27.6948Z" fill="#060502"/>
<path d="M56.5 59.5C56.5413 59.5825 56.5825 59.665 56.625 59.75C56.8323 59.8358 57.0409 59.9185 57.25 60C57.5254 60.1527 57.7987 60.3093 58.0703 60.4688C58.8642 60.9301 59.674 61.3485 60.5 61.75C60.6668 61.8331 60.8335 61.9164 61 62C60.257 62.2477 59.6151 62.1168 58.8848 61.8833C58.8064 61.8586 58.7281 61.834 58.6474 61.8085C58.4 61.7303 58.1531 61.6503 57.9062 61.5703C57.7388 61.5171 57.5713 61.4639 57.4038 61.4109C56.8514 61.2356 56.2998 61.0583 55.75 60.875C55.8259 60.4808 55.9552 60.2264 56.1953 59.9062C56.2522 59.8296 56.3091 59.7529 56.3677 59.6738C56.4113 59.6165 56.455 59.5591 56.5 59.5Z" fill="#3E434B"/>
</g>
<defs>
<clipPath id="clip0_61_5">
<rect width="64" height="64" fill="white"/>
</clipPath>
</defs>
</svg>
